<?xml version="1.0" encoding="UTF-8" standalone="no"?>
<svg
   xmlns:dc="http://purl.org/dc/elements/1.1/"
   xmlns:cc="http://creativecommons.org/ns#"
   xmlns:rdf="http://www.w3.org/1999/02/22-rdf-syntax-ns#"
   xmlns:svg="http://www.w3.org/2000/svg"
   xmlns="http://www.w3.org/2000/svg"
   xmlns:sodipodi="http://sodipodi.sourceforge.net/DTD/sodipodi-0.dtd"
   xmlns:inkscape="http://www.inkscape.org/namespaces/inkscape"
   fill="none"
   height="28"
   viewBox="0 0 28 28"
   width="28"
   version="1.1"
   id="svg6"
   sodipodi:docname="check_ white.svg"
   inkscape:version="1.0.2-2 (e86c870879, 2021-01-15)">
  <metadata
     id="metadata12">
    <rdf:RDF>
      <cc:Work
         rdf:about="">
        <dc:format>image/svg+xml</dc:format>
        <dc:type
           rdf:resource="http://purl.org/dc/dcmitype/StillImage" />
        <dc:title></dc:title>
      </cc:Work>
    </rdf:RDF>
  </metadata>
  <defs
     id="defs10" />
  <sodipodi:namedview
     pagecolor="#ffffff"
     bordercolor="#666666"
     borderopacity="1"
     objecttolerance="10"
     gridtolerance="10"
     guidetolerance="10"
     inkscape:pageopacity="0"
     inkscape:pageshadow="2"
     inkscape:window-width="1920"
     inkscape:window-height="1017"
     id="namedview8"
     showgrid="false"
     inkscape:zoom="30.357143"
     inkscape:cx="14"
     inkscape:cy="14"
     inkscape:window-x="-8"
     inkscape:window-y="-8"
     inkscape:window-maximized="1"
     inkscape:current-layer="svg6" />
  <path
     d="M6.65263 14.0304C6.29251 13.6703 6.29251 13.0864 6.65263 12.7263C7.01276 12.3662 7.59663 12.3662 7.95676 12.7263L11.6602 16.4297L19.438 8.65183C19.7981 8.29171 20.382 8.29171 20.7421 8.65183C21.1023 9.01195 21.1023 9.59583 20.7421 9.95596L12.3667 18.3314C11.9762 18.7219 11.343 18.7219 10.9525 18.3314L6.65263 14.0304Z"
     fill="black"
     id="path2" />
  <path
     clip-rule="evenodd"
     d="M14 1C6.8203 1 1 6.8203 1 14C1 21.1797 6.8203 27 14 27C21.1797 27 27 21.1797 27 14C27 6.8203 21.1797 1 14 1ZM3 14C3 7.92487 7.92487 3 14 3C20.0751 3 25 7.92487 25 14C25 20.0751 20.0751 25 14 25C7.92487 25 3 20.0751 3 14Z"
     fill="black"
     fill-rule="evenodd"
     id="path4" />
  <path
     style="fill:#ffffff;stroke-width:0.0329412"
     d="M 13.127059,26.958361 C 11.716398,26.845823 10.402042,26.543395 9.1741176,26.048804 5.0804969,24.399952 2.0932593,20.786506 1.2558031,16.470588 0.13533095,10.696119 3.0457969,4.891156 8.3505882,2.3199459 10.260057,1.3944341 12.183298,0.97853236 14.312068,1.030773 c 1.625552,0.039892 3.047591,0.3298609 4.513814,0.9204167 4.128699,1.6629294 7.138279,5.3333262 7.934794,9.6770453 0.167692,0.914491 0.200163,1.299248 0.200163,2.371765 0,1.072517 -0.03247,1.457274 -0.200163,2.371765 -0.799578,4.360425 -3.847288,8.061057 -7.984205,9.694693 -1.072478,0.423513 -1.995949,0.660871 -3.178824,0.817048 -0.477004,0.06298 -2.029731,0.110025 -2.470588,0.07485 z m 2.338823,-2.035477 c 2.448718,-0.351556 4.617325,-1.425774 6.324276,-3.132726 1.713443,-1.713443 2.781592,-3.874722 3.135557,-6.344448 0.08379,-0.584669 0.08379,-2.306751 0,-2.89142 C 24.70461,11.01157 24.23102,9.6488422 23.473055,8.3743405 21.695927,5.3861413 18.616171,3.4095714 15.174068,3.0480993 c -0.619875,-0.065096 -1.728261,-0.065096 -2.348136,0 C 9.167174,3.4323234 5.9400175,5.6329178 4.2286318,8.9105882 3.3970638,10.503219 2.9976471,12.154577 2.9976471,14 c 0,1.788535 0.3739711,3.388897 1.1561373,4.947546 1.6487781,3.285574 4.9258296,5.586067 8.5285686,5.987063 0.172118,0.01916 0.357412,0.04087 0.411765,0.04825 0.252186,0.03424 2.028396,-0.01068 2.371764,-0.05997 z"
     id="path14" />
  <path
     style="fill:#ffffff;stroke-width:0.0329412"
     d="M 11.447059,18.583043 C 11.165069,18.509336 11.069033,18.421345 8.8213987,16.17732 6.3242879,13.684219 6.4108644,13.784947 6.4120262,13.374118 c 7.2e-4,-0.254609 0.058492,-0.403506 0.2306553,-0.594473 0.2456327,-0.27246 0.6169868,-0.363313 0.985568,-0.24112 0.1468839,0.04869 0.346615,0.237589 2.0979916,1.984159 l 1.9356529,1.930341 3.944347,-3.941046 c 2.773176,-2.7708563 3.988362,-3.9637521 4.092583,-4.0175143 0.115737,-0.059703 0.202398,-0.076633 0.395294,-0.077226 0.21354,-6.556e-4 0.271367,0.012648 0.426236,0.09806 0.294829,0.1626019 0.456475,0.4402077 0.460347,0.7905832 0.0046,0.4146274 0.273047,0.1225514 -4.453907,4.8456431 -3.466448,3.463617 -4.319336,4.299345 -4.446538,4.357072 -0.173334,0.07866 -0.479391,0.114646 -0.633197,0.07445 z"
     id="path16" />
</svg>
